<svg xmlns="http://www.w3.org/2000/svg" viewBox="0 0 1042 1009" fill-rule="evenodd" clip-rule="evenodd" role="img" aria-label="TradingKit">
<rect width="1042" height="1009" rx="150" fill="#6366f1"/>
<g><path style="opacity:1" fill="#ffffff" d="M 685.5,55.5 C 690.5,55.5 695.5,55.5 700.5,55.5C 700.5,73.5 700.5,91.5 700.5,109.5C 708.5,109.5 716.5,109.5 724.5,109.5C 724.667,161.834 724.5,214.168 724,266.5C 705.519,285.914 686.686,305.08 667.5,324C 665.76,325.694 663.76,326.861 661.5,327.5C 661.5,254.833 661.5,182.167 661.5,109.5C 669.5,109.5 677.5,109.5 685.5,109.5C 685.5,91.5 685.5,73.5 685.5,55.5 Z"/></g>
<g><path style="opacity:1" fill="#ffffff" d="M 405.5,87.5 C 409.833,87.5 414.167,87.5 418.5,87.5C 418.333,105.503 418.5,123.503 419,141.5C 427.081,142.482 435.248,142.816 443.5,142.5C 443.5,175.167 443.5,207.833 443.5,240.5C 422.823,240.833 402.156,240.5 381.5,239.5C 381.469,207.261 381.469,174.928 381.5,142.5C 389.5,142.5 397.5,142.5 405.5,142.5C 405.5,124.167 405.5,105.833 405.5,87.5 Z"/></g>
<g><path style="opacity:1" fill="#ffffff" d="M 498.5,124.5 C 503.167,124.5 507.833,124.5 512.5,124.5C 513.735,138.723 513.735,152.889 512.5,167C 520.493,167.5 528.493,167.666 536.5,167.5C 536.5,191.833 536.5,216.167 536.5,240.5C 515.833,240.5 495.167,240.5 474.5,240.5C 475.074,216.167 475.407,191.834 475.5,167.5C 483.507,167.666 491.507,167.5 499.5,167C 498.51,152.912 498.176,138.745 498.5,124.5 Z"/></g>
<g><path style="opacity:1" fill="#ffffff" d="M 965.5,130.5 C 967.833,130.5 970.167,130.5 972.5,130.5C 969.354,145.087 966.521,159.754 964,174.5C 962.956,175.623 962.29,176.956 962,178.5C 949.021,237.132 936.021,295.798 923,354.5C 922.282,355.451 921.449,355.617 920.5,355C 918.368,352.697 916.034,350.697 913.5,349C 900.738,335.449 887.738,322.115 874.5,309C 872.066,308.667 871.066,309.834 871.5,312.5C 866.599,316.218 861.765,320.218 857,324.5C 851.949,330.706 846.616,336.706 841,342.5C 825.04,357.495 809.706,373.162 795,389.5C 748.91,435.428 703.076,482.095 657.5,529.5C 748.14,632.986 837.974,737.319 927,842.5C 868.901,843.831 810.734,843.831 752.5,842.5C 708.137,790.475 663.804,738.475 619.5,686.5C 600.847,666.075 583.18,645.575 566.5,625C 565.167,624.333 563.833,624.333 562.5,625C 546.026,642.308 529.359,659.475 512.5,676.5C 510.227,678.663 507.893,678.829 505.5,677C 495.028,665.86 484.528,654.693 474,643.5C 463.774,634.029 453.774,624.362 444,614.5C 441.027,609.587 437.36,605.254 433,601.5C 432.5,672.499 432.333,743.499 432.5,814.5C 457.5,814.5 482.5,814.5 507.5,814.5C 507.167,780.16 507.5,745.827 508.5,711.5C 516.609,703.892 524.609,696.059 532.5,688C 533.793,687.51 535.127,687.343 536.5,687.5C 536.667,739.168 536.5,790.834 536,842.5C 492.567,843.83 449.067,843.83 405.5,842.5C 403.674,769.312 402.84,695.978 403,622.5C 399.561,626.36 395.895,630.027 392,633.5C 391.517,634.448 391.351,635.448 391.5,636.5C 390.325,636.281 389.325,636.614 388.5,637.5C 381.148,645.351 373.981,653.351 367,661.5C 366.5,722.166 366.333,782.832 366.5,843.5C 322.833,843.5 279.167,843.5 235.5,843.5C 235.333,813.498 235.5,783.498 236,753.5C 295.437,692.355 354.437,632.022 413,572.5C 413.483,571.552 413.649,570.552 413.5,569.5C 414.675,569.719 415.675,569.386 416.5,568.5C 418.787,565.674 421.12,562.841 423.5,560C 425.911,557.302 428.577,556.968 431.5,559C 435.161,563.179 439.161,566.679 443.5,569.5C 443.351,570.552 443.517,571.552 444,572.5C 465.627,594.294 487.127,616.294 508.5,638.5C 528.873,618.626 549.04,598.626 569,578.5C 569.483,577.552 569.649,576.552 569.5,575.5C 570.675,575.719 571.675,575.386 572.5,574.5C 661.645,483.519 751.145,392.519 841,301.5C 841.483,300.552 841.649,299.552 841.5,298.5C 842.552,298.649 843.552,298.483 844.5,298C 853.187,287.729 862.687,278.229 873,269.5C 874.225,269.862 875.391,270.362 876.5,271C 885.781,280.958 895.447,290.458 905.5,299.5C 907.545,292.366 909.545,285.199 911.5,278C 913.04,267.958 915.207,258.124 918,248.5C 923.96,221.717 929.794,194.883 935.5,168C 892.25,177.456 848.916,187.456 805.5,198C 805.167,198.333 804.833,198.667 804.5,199C 811.473,205.973 818.473,212.973 825.5,220C 826.448,220.483 827.448,220.649 828.5,220.5C 828.284,222.681 829.117,224.347 831,225.5C 831.667,227.167 831.667,228.833 831,230.5C 820.387,241.113 809.721,251.779 799,262.5C 798.517,263.448 798.351,264.448 798.5,265.5C 797.448,265.351 796.448,265.517 795.5,266C 786.326,275.84 777.159,285.673 768,295.5C 749.852,313.981 731.352,332.148 712.5,350C 712.833,350.333 713.167,350.667 713.5,351C 694.503,369.484 675.836,388.317 657.5,407.5C 656.675,408.386 655.675,408.719 654.5,408.5C 654.719,409.675 654.386,410.675 653.5,411.5C 605.867,460.297 558.201,508.797 510.5,557C 509.167,557.667 507.833,557.667 506.5,557C 480.763,529.593 454.597,502.427 428,475.5C 407.552,496.946 386.885,517.946 366,538.5C 364,541.167 362,543.833 360,546.5C 346.333,559.833 332.667,573.167 319,586.5C 318.517,587.448 318.351,588.448 318.5,589.5C 317.178,589.33 316.011,589.663 315,590.5C 300.339,607.495 284.672,623.495 268,638.5C 235.341,672.831 202.174,706.997 168.5,741C 166.833,741.667 165.167,741.667 163.5,741C 158.845,735.545 153.845,730.378 148.5,725.5C 147.167,723.833 147.167,722.167 148.5,720.5C 177.811,690.607 207.145,660.607 236.5,630.5C 237.325,629.614 238.325,629.281 239.5,629.5C 239.351,628.448 239.517,627.448 240,626.5C 275.71,590.279 311.544,554.113 347.5,518C 347.167,517.667 346.833,517.333 346.5,517C 347.5,516.667 348.5,516.333 349.5,516C 369.004,496.162 388.171,475.996 407,455.5C 413.663,448.339 420.83,441.672 428.5,435.5C 432.545,438.589 436.378,441.922 440,445.5C 442.022,447.531 443.689,449.865 445,452.5C 466.566,473.734 487.899,495.401 509,517.5C 603.34,421.466 697.674,325.466 792,229.5C 792.667,228.5 792.667,227.5 792,226.5C 778.983,212.817 765.65,199.483 752,186.5C 750.991,184.975 750.491,183.308 750.5,181.5C 818.404,165.408 886.738,149.575 955.5,134C 958.803,132.517 962.136,131.35 965.5,130.5 Z M 636.5,549.5 C 646.043,560.063 655.71,570.563 665.5,581C 665.043,581.414 664.709,581.914 664.5,582.5C 671.44,588.819 677.606,595.819 683,603.5C 689.15,610.349 695.65,617.515 702.5,625C 711.204,636.102 720.704,647.268 731,658.5C 731.483,659.448 731.649,660.448 731.5,661.5C 732.675,661.281 733.675,661.614 734.5,662.5C 777.63,713.464 821.297,763.964 865.5,814C 832.5,814.667 799.5,814.667 766.5,814C 717.007,756.461 667.174,698.627 617,640.5C 606.319,627.986 595.819,615.319 585.5,602.5C 602.275,584.618 619.275,566.951 636.5,549.5 Z M 337.5,689.5 C 338.499,730.997 338.832,772.663 338.5,814.5C 313.498,814.667 288.498,814.5 263.5,814C 264.833,798.333 264.833,782.667 263.5,767C 279.247,750.255 295.247,733.921 311.5,718C 313.658,713.838 317.158,710.338 322,707.5C 327.406,701.603 332.572,695.603 337.5,689.5 Z"/></g>
<g><path style="opacity:1" fill="#ffffff" d="M 593.5,134.5 C 597.833,134.5 602.167,134.5 606.5,134.5C 606.5,152.5 606.5,170.5 606.5,188.5C 614.466,189.365 622.466,189.698 630.5,189.5C 630.5,235.5 630.5,281.5 630.5,327.5C 622.5,327.5 614.5,327.5 606.5,327.5C 606.5,344.167 606.5,360.833 606.5,377.5C 601.5,377.5 596.5,377.5 591.5,377.5C 591.5,360.833 591.5,344.167 591.5,327.5C 583.833,327.5 576.167,327.5 568.5,327.5C 568.333,281.832 568.5,236.165 569,190.5C 576.83,189.915 584.664,189.082 592.5,188C 591.465,186.493 591.632,184.993 593,183.5C 593.5,167.17 593.667,150.837 593.5,134.5 Z"/></g>
<g><path style="opacity:1" fill="#ffffff" d="M 311.5,149.5 C 316.167,149.5 320.833,149.5 325.5,149.5C 325.5,162.5 325.5,175.5 325.5,188.5C 333.5,188.5 341.5,188.5 349.5,188.5C 349.5,205.833 349.5,223.167 349.5,240.5C 329.167,240.5 308.833,240.5 288.5,240.5C 288.5,223.167 288.5,205.833 288.5,188.5C 296.167,188.5 303.833,188.5 311.5,188.5C 311.5,175.5 311.5,162.5 311.5,149.5 Z"/></g>
<g><path style="opacity:1" fill="#ffffff" d="M 67.5,261.5 C 223.167,261.333 378.834,261.5 534.5,262C 535,262.5 535.5,263 536,263.5C 536.5,328.832 536.667,394.166 536.5,459.5C 535.448,459.351 534.448,459.517 533.5,460C 525.579,468 517.912,476.166 510.5,484.5C 509.045,485.745 507.711,485.578 506.5,484C 507.495,455.24 507.829,426.407 507.5,397.5C 482.831,397.333 458.164,397.5 433.5,398C 424.319,407.014 415.319,416.181 406.5,425.5C 405.675,426.386 404.675,426.719 403.5,426.5C 403.5,416.833 403.5,407.167 403.5,397.5C 391.167,397.5 378.833,397.5 366.5,397.5C 366.667,420.169 366.5,442.836 366,465.5C 358.272,473.293 350.772,481.293 343.5,489.5C 342.15,490.95 340.484,491.617 338.5,491.5C 338.5,450.5 338.5,409.5 338.5,368.5C 394.5,368.5 450.5,368.5 506.5,368.5C 507.463,342.859 507.796,317.192 507.5,291.5C 369.833,291.5 232.167,291.5 94.5,291.5C 94.5,317.167 94.5,342.833 94.5,368.5C 151.167,368.5 207.833,368.5 264.5,368.5C 264.833,435.837 264.5,503.17 263.5,570.5C 255.162,580.504 246.162,589.838 236.5,598.5C 235.5,531.503 235.167,464.503 235.5,397.5C 179.499,397.667 123.499,397.5 67.5,397C 66.1692,351.833 66.1692,306.667 67.5,261.5 Z"/></g>
</svg>
